<svg height="30px" viewBox="0 0 512 116" fill="none" xmlns="http://www.w3.org/2000/svg">
    <g clip-path="url(#clip0_1320_145)">
        <path
            d="M131.182 38.395V3.75867H154.394V9.41888H138.244V18.1948H152.265V23.9069H138.244V32.7348H154.394V38.395H131.182ZM171.264 39.1739C169.81 39.1739 168.425 39.0352 167.11 38.7585C165.794 38.4818 164.617 38.0315 163.578 37.4084C162.54 36.7504 161.709 35.8676 161.086 34.76C160.497 33.6176 160.203 32.1982 160.203 30.5019C160.203 28.7363 160.566 27.2477 161.293 26.036C162.021 24.7897 163.076 23.855 164.461 23.2319C165.88 22.5741 167.611 22.2452 169.654 22.2452C170.9 22.2452 172.06 22.3664 173.133 22.6087C174.206 22.8165 175.175 23.1107 176.041 23.4915C176.906 23.8723 177.616 24.2877 178.17 24.7378L178.638 28.4247C177.911 27.9401 176.976 27.5592 175.833 27.2823C174.725 26.9707 173.514 26.8149 172.199 26.8149C170.363 26.8149 168.996 27.1092 168.096 27.6977C167.196 28.2862 166.746 29.2037 166.746 30.4499C166.746 31.3155 166.988 32.0425 167.473 32.6309C167.957 33.1849 168.581 33.6176 169.343 33.9292C170.103 34.2059 170.9 34.3446 171.731 34.3446C173.635 34.3446 175.003 34.2237 175.833 33.9811C176.698 33.7044 177.132 33.1329 177.132 32.2675V21.9337C177.132 20.2373 176.595 19.0084 175.522 18.2467C174.449 17.4505 172.942 17.0524 171.004 17.0524C169.515 17.0524 167.992 17.312 166.435 17.8313C164.877 18.3159 163.613 18.9565 162.644 19.7527V13.7809C163.578 13.1924 164.98 12.6731 166.85 12.223C168.719 11.7729 170.727 11.548 172.873 11.548C173.774 11.548 174.725 11.6345 175.73 11.8076C176.733 11.9807 177.685 12.2577 178.586 12.6384C179.52 13.0192 180.368 13.5559 181.13 14.2482C181.891 14.906 182.497 15.7541 182.948 16.7927C183.397 17.7967 183.623 19.0257 183.623 20.4797V32.8906C183.623 34.5174 183.103 35.7986 182.065 36.7333C181.027 37.6331 179.589 38.2563 177.755 38.6027C175.92 38.9833 173.757 39.1739 171.264 39.1739ZM198.599 39.1739C196.729 39.1739 195.137 38.9662 193.822 38.5508C192.506 38.1702 191.242 37.7029 190.031 37.1487V31.2289C190.827 31.7482 191.657 32.2502 192.524 32.7348C193.423 33.1849 194.376 33.5486 195.38 33.8253C196.418 34.102 197.526 34.2407 198.703 34.2407C200.088 34.2407 201.108 33.9811 201.766 33.4618C202.459 32.9079 202.805 32.2502 202.805 31.4885C202.805 30.7615 202.546 30.2076 202.026 29.8268C201.507 29.4114 200.832 29.0652 200.001 28.7882C199.17 28.5113 198.287 28.2343 197.353 27.9574C196.487 27.7497 195.604 27.4727 194.704 27.1265C193.839 26.7803 193.043 26.3129 192.316 25.7245C191.589 25.1359 191 24.3916 190.55 23.4915C190.135 22.5568 189.927 21.4317 189.927 20.1162C189.927 18.5583 190.239 17.2428 190.862 16.1696C191.485 15.0964 192.298 14.231 193.302 13.5731C194.306 12.9154 195.414 12.448 196.626 12.1711C197.837 11.8595 199.014 11.7038 200.157 11.7038C202.13 11.7729 203.723 12.0153 204.934 12.4308C206.146 12.8115 207.288 13.3135 208.362 13.9367L208.413 19.2853C207.202 18.6275 206.025 18.039 204.882 17.5197C203.74 16.9658 202.442 16.6889 200.988 16.6889C199.638 16.6889 198.582 16.9312 197.82 17.4159C197.093 17.8659 196.729 18.5064 196.729 19.3372C196.729 20.0642 196.954 20.6527 197.405 21.1028C197.855 21.5529 198.443 21.899 199.17 22.1414C199.897 22.3837 200.693 22.626 201.559 22.8684C202.425 23.1107 203.324 23.3877 204.259 23.6992C205.194 23.9762 206.06 24.3916 206.856 24.9455C207.652 25.4995 208.293 26.2437 208.777 27.1785C209.296 28.0785 209.556 29.2902 209.556 30.8135C209.521 32.8214 208.985 34.4484 207.946 35.6947C206.908 36.9061 205.54 37.7889 203.844 38.3431C202.182 38.8972 200.434 39.1739 198.599 39.1739ZM220.39 48.5209C219.629 48.5209 218.884 48.4522 218.157 48.3133C217.465 48.1748 216.859 47.9847 216.339 47.7422V42.2896C216.824 42.4626 217.292 42.5841 217.741 42.6531C218.192 42.7571 218.659 42.8091 219.144 42.8091C220.113 42.8091 220.927 42.5662 221.584 42.082C222.242 41.6315 222.796 40.9048 223.246 39.901C223.731 38.8972 224.112 37.6331 224.388 36.1102L224.492 39.6413L213.327 12.223H220.805L227.556 31.7482H226.777L233.476 12.223H240.434L229.893 39.4336C228.993 41.7534 228.023 43.5708 226.985 44.8861C225.946 46.2014 224.856 47.1361 223.713 47.6902C222.606 48.2442 221.498 48.5209 220.39 48.5209Z"
            fill="#635BFF" />
        <path
            d="M131.097 113.321V53.9441H171.512V65.0716H145.519V79.2258H167.952V90.5315H145.519V113.321H131.097ZM181.422 113.321V72.9945C182.253 72.2825 183.737 71.4811 185.873 70.5909C188.01 69.6415 190.443 68.8104 193.173 68.0983C195.962 67.3268 198.751 66.941 201.541 66.941C204.33 66.941 206.526 67.149 208.128 67.5641C209.731 67.9797 210.947 68.5139 211.778 69.1664V78.8698C210.769 78.6324 209.493 78.4542 207.95 78.3356C206.407 78.2169 204.805 78.1578 203.143 78.1578C201.481 78.0982 199.909 78.0982 198.425 78.1578C196.941 78.2169 195.695 78.3356 194.686 78.5138V113.321H181.422ZM238.23 114.656C230.634 114.656 224.907 112.638 221.049 108.603C217.251 104.508 215.352 98.5135 215.352 90.6204C215.352 82.1339 217.281 76.0506 221.138 72.3714C225.055 68.6326 230.753 66.7632 238.23 66.7632C243.275 66.7632 247.489 67.6236 250.871 69.3446C254.314 71.0064 256.895 73.5879 258.616 77.0893C260.396 80.5907 261.287 85.1011 261.287 90.6204C261.287 98.5135 259.299 104.508 255.322 108.603C251.346 112.638 245.649 114.656 238.23 114.656ZM238.23 104.063C240.426 104.063 242.236 103.558 243.661 102.549C245.144 101.481 246.242 99.9678 246.954 98.0091C247.726 95.9912 248.112 93.5285 248.112 90.6204C248.112 87.2972 247.726 84.686 246.954 82.7868C246.242 80.8281 245.144 79.4338 243.661 78.6027C242.177 77.7124 240.367 77.2675 238.23 77.2675C235.975 77.2675 234.136 77.7124 232.711 78.6027C231.287 79.4929 230.219 80.9174 229.507 82.8757C228.854 84.7749 228.527 87.3563 228.527 90.6204C228.527 95.1308 229.299 98.5135 230.842 100.769C232.444 102.965 234.907 104.063 238.23 104.063ZM270.442 72.1042C271.57 71.5109 273.054 70.9171 274.894 70.3238C276.733 69.6709 278.751 69.1073 280.947 68.6326C283.143 68.1575 285.338 67.7721 287.534 67.4752C289.79 67.1783 291.867 67.0299 293.766 67.0299C297.801 67.0299 301.243 67.5641 304.092 68.6326C306.941 69.6415 309.107 71.3029 310.591 73.6176C312.133 75.9319 312.905 79.0774 312.905 83.0539V113.321H299.641V85.7242C299.641 84.5966 299.463 83.5584 299.107 82.6086C298.81 81.6592 298.336 80.8579 297.683 80.205C297.03 79.4929 296.14 78.9587 295.012 78.6027C293.884 78.1871 292.52 77.9795 290.917 77.9795C289.552 77.9795 288.187 78.1578 286.822 78.5138C285.457 78.8103 284.419 79.1369 283.706 79.4929V113.321H270.442V72.1042ZM343.116 115.101C337.894 115.101 334.007 113.885 331.455 111.451C328.903 108.959 327.627 105.457 327.627 100.947V78.4249H321.039V68.2765H327.627V55.9024H341.514V68.2765H351.395V78.4249H341.514V99.2553C341.514 100.798 341.841 101.956 342.493 102.727C343.146 103.439 344.244 103.795 345.787 103.795C346.677 103.795 347.656 103.617 348.725 103.261C349.793 102.905 350.683 102.46 351.395 101.926V113.321C350.149 113.974 348.784 114.418 347.3 114.656C345.876 114.953 344.482 115.101 343.116 115.101ZM381.848 114.656C377.337 114.656 373.331 113.736 369.83 111.896C366.388 109.997 363.688 107.327 361.729 103.884C359.83 100.383 358.88 96.2286 358.88 91.4217C358.88 83.5877 360.809 77.5346 364.667 73.2616C368.584 68.9291 374.162 66.7632 381.403 66.7632C386.388 66.7632 390.394 67.8312 393.42 69.9677C396.506 72.1042 398.761 75.2199 400.186 79.3147C401.61 83.4099 402.293 88.395 402.234 94.2703H367.961L366.536 85.8135H391.284L389.325 89.9973C389.266 85.1904 388.583 81.8076 387.278 79.8489C385.972 77.8906 383.836 76.9115 380.868 76.9115C379.207 76.9115 377.693 77.3266 376.328 78.1578C375.023 78.9885 373.984 80.3832 373.213 82.3415C372.501 84.2406 372.145 86.8816 372.145 90.2644C372.145 94.5374 373.154 97.8313 375.171 100.146C377.248 102.46 380.542 103.617 385.053 103.617C386.714 103.617 388.346 103.439 389.949 103.083C391.61 102.668 393.153 102.193 394.578 101.659C396.002 101.125 397.217 100.65 398.229 100.234V111.629C396.091 112.519 393.688 113.232 391.017 113.766C388.406 114.359 385.349 114.656 381.848 114.656ZM411.45 72.1042C412.577 71.5109 414.061 70.9171 415.899 70.3238C417.74 69.6709 419.757 69.1073 421.956 68.6326C424.15 68.1575 426.345 67.7721 428.54 67.4752C430.794 67.1783 432.874 67.0299 434.771 67.0299C438.808 67.0299 442.249 67.5641 445.099 68.6326C447.948 69.6415 450.115 71.3029 451.596 73.6176C453.14 75.9319 453.914 79.0774 453.914 83.0539V113.321H440.649V85.7242C440.649 84.5966 440.471 83.5584 440.114 82.6086C439.816 81.6592 439.344 80.8579 438.689 80.205C438.038 79.4929 437.145 78.9587 436.018 78.6027C434.89 78.1871 433.525 77.9795 431.926 77.9795C430.56 77.9795 429.195 78.1578 427.83 78.5138C426.464 78.8103 425.424 79.1369 424.714 79.4929V113.321H411.45V72.1042ZM487.238 114.656C483.737 114.656 480.502 114.27 477.537 113.499C474.628 112.727 472.104 111.451 469.968 109.671C467.833 107.831 466.142 105.339 464.896 102.193C463.709 99.0478 463.114 95.1308 463.114 90.4426C463.114 83.1428 464.896 77.3862 468.456 73.1723C472.076 68.9588 477.478 66.8521 484.658 66.8521C485.606 66.8521 486.852 66.941 488.396 67.1192C489.94 67.2379 491.54 67.5939 493.203 68.1873C494.866 68.781 496.35 69.7895 497.656 71.214L494.985 75.3088V49.76H508.158V101.57C508.158 103.766 507.567 105.695 506.38 107.356C505.193 108.959 503.59 110.294 501.57 111.362C499.613 112.43 497.386 113.232 494.894 113.766C492.401 114.359 489.849 114.656 487.238 114.656ZM487.773 103.528C489.909 103.528 491.631 103.261 492.937 102.727C494.302 102.134 494.985 101.273 494.985 100.146V79.404C493.917 78.8103 492.758 78.3653 491.512 78.0684C490.325 77.7124 489.166 77.5346 488.039 77.5346C485.547 77.5346 483.439 77.9498 481.721 78.7809C479.998 79.6116 478.692 81.0063 477.803 82.9646C476.974 84.9233 476.557 87.5643 476.557 90.8875C476.557 93.4987 476.914 95.7539 477.625 97.653C478.335 99.4927 479.494 100.947 481.097 102.015C482.756 103.024 484.983 103.528 487.773 103.528Z"
            fill="currentcolor"/>
        <path
            d="M11.9529 23.1033C11.9529 10.3437 22.2407 0 34.9313 0H47.0179V109.556H34.9313C22.2407 109.556 11.9529 99.2121 11.9529 86.4526V23.1033Z"
            fill="#3D3995"/>
        <path
            d="M12.0251 22.7687C12.1509 10.1419 22.3935 0 34.9527 0H83.6969C92.2727 0 99.2248 6.98987 99.2248 15.6123C99.2248 24.2348 92.258 31.1787 83.7652 29.9825C51.4247 25.4277 12.9955 10.9345 12.3089 31.2247C11.8874 43.6831 11.9096 34.3791 12.0251 22.7687Z"
            fill="#635BFF"/>
        <path
            d="M11.9529 63.9959C11.9529 51.2364 22.2407 40.8928 34.9313 40.8928H47.0179V109.556H34.9313C22.2407 109.556 11.9529 99.212 11.9529 86.4525V63.9959Z"
            fill="#39358C"/>
        <path
            d="M12.0041 63.7574C12.0944 51.0931 22.35 40.8928 34.9461 40.8928H59.1102C67.686 40.8928 74.6381 47.8826 74.6381 56.5053C74.6381 65.1275 67.6435 71.9276 59.2955 69.9538C37.0774 64.7008 12.672 53.0494 12.2086 72.1177C11.9067 84.5414 11.9217 75.323 12.0041 63.7574Z"
            fill="#635BFF"/>
        <path
            d="M11.9792 92.3324C12.1049 104.959 22.3475 115.101 34.9067 115.101H83.6509C92.2267 115.101 99.1788 108.111 99.1788 99.4885C99.1788 90.8662 92.212 83.9221 83.7191 85.1183C51.3786 89.6731 12.9495 104.166 12.263 83.876C11.8414 71.4178 11.8636 80.7219 11.9792 92.3324Z"
            fill="#DBDAEA"/>
    </g>
    <defs>
        <clipPath id="clip0_1320_145">
            <rect width="512" height="115.101" fill="white"/>
        </clipPath>
    </defs>
</svg>
