<svg fill="currentColor" viewBox="0 0 90 24" xmlns="http://www.w3.org/2000/svg" class="h-4.5"><defs><clipPath id="a"><path d="M12.785 12.781h11.172V24H12.785Zm0 0"></path></clipPath><clipPath id="b"><path d="M.008 0h11.148v11.2H.008Zm0 0"></path></clipPath></defs><g clip-path="url(#a)"><path d="M15.008 23.855c-.91-.242-1.61-.851-2.028-1.75-.19-.41-.19-.488-.19-3.73 0-3.309 0-3.309.288-3.89a3 3 0 0 1 1.485-1.458c.488-.226.488-.226 3.792-.226 3.31 0 3.31 0 3.887.289.672.332 1.133.8 1.453 1.488.227.488.227.488.25 3.563.028 2.632.012 3.148-.113 3.574-.309 1.078-1.102 1.87-2.168 2.152-.734.18-5.941.18-6.656-.012m6.637-1.46c.18-.086.433-.305.562-.473.234-.305.234-.305.234-3.547 0-3.238 0-3.238-.242-3.55-.476-.637-.441-.63-3.844-.63-2.71 0-3.07.02-3.312.149-.375.199-.707.617-.82 1.011-.098.399-.11 5.497 0 5.977.14.61.601 1.07 1.195 1.191.184.036 1.582.063 3.113.055 2.54-.02 2.809-.035 3.114-.183m0 0" opacity="50%"></path></g><path d="M2.86 23.09c-.766-.242-1.532-.93-1.88-1.688-.183-.402-.187-.515-.187-3.765 0-3.356 0-3.356.23-3.852.278-.598.836-1.176 1.422-1.46.43-.22.43-.22 3.746-.247 3.235-.023 3.32-.015 3.829.168.683.262 1.406.973 1.695 1.688.207.523.207.539.207 3.703 0 3.504 0 3.496-.567 4.32-.34.48-.82.848-1.44 1.082-.446.164-.665.172-3.583.164-2.297 0-3.203-.035-3.473-.113M13.879 11.695c-.672-.258-1.395-.992-1.645-1.672-.18-.503-.191-.59-.164-3.832.028-3.265.028-3.328.223-3.718.324-.653.758-1.09 1.395-1.403.578-.289.578-.289 3.93-.289 3.253 0 3.355.008 3.757.192.57.261 1.242.914 1.52 1.5.246.488.246.488.246 3.84 0 3.355 0 3.355-.29 3.937a2.9 2.9 0 0 1-1.398 1.395c-.39.199-.445.199-3.746.218-3.238.016-3.371.016-3.828-.168m0 0"></path><g clip-path="url(#b)"><path d="M2.219 11.078c-.89-.254-1.602-.871-2.012-1.765-.2-.418-.2-.481-.2-3.743 0-3.308 0-3.308.235-3.804A3.34 3.34 0 0 1 1.773.234C2.27 0 2.27 0 5.574 0c3.301 0 3.301 0 3.801.234.633.297 1.23.895 1.527 1.532.235.496.235.496.235 3.804 0 3.313 0 3.313-.227 3.801-.32.688-.777 1.16-1.45 1.488-.585.29-.585.29-3.714.305-2.305.02-3.234-.008-3.527-.086m6.668-1.473c.34-.18.715-.617.8-.921.036-.13.06-1.567.06-3.2 0-3.308.01-3.28-.626-3.761-.312-.243-.312-.243-3.32-.27-1.653-.02-3.145 0-3.297.027-.156.024-.434.2-.617.372-.508.48-.54.777-.461 4.12.058 2.844.058 2.844.304 3.157.489.644.59.66 4.016.644 2.531-.02 2.902-.035 3.14-.168m0 0"></path></g><path d="m33.688 17.254-1.622-2.125 3.325-2.57a1.6 1.6 0 0 0-.696-.434 3 3 0 0 0-.957-.145q-.626.001-1.148.266a2.75 2.75 0 0 0-.903.707q-.379.445-.59 1.047c-.14.402-.206.84-.206 1.313q0 .655.246 1.257c.164.403.394.758.68 1.063q.432.46 1.019.734a3 3 0 0 0 1.27.278c.84 0 1.57-.243 2.199-.723q.942-.72 1.152-2.008l3.375.367a7.6 7.6 0 0 1-.879 2.387q-.614 1.053-1.504 1.797-.891.75-2.027 1.14a7.5 7.5 0 0 1-2.445.395 6.6 6.6 0 0 1-2.606-.512 6.1 6.1 0 0 1-2.039-1.402 6.3 6.3 0 0 1-1.32-2.11q-.474-1.223-.473-2.663-.001-1.44.473-2.676a6.2 6.2 0 0 1 1.332-2.125 6.2 6.2 0 0 1 2.043-1.387q1.177-.499 2.59-.5 2.195 0 3.777.973c1.059.644 1.855 1.582 2.398 2.804ZM47.973 6.684H46.69q-.601 0-.968.277-.366.277-.368.98v1h2.618v3.25h-2.618v9.493h-3.347V8.864c0-1.962.418-3.372 1.254-4.239q1.26-1.296 3.48-1.297h1.23ZM54.723 6.684H53.44q-.601 0-.968.277-.366.277-.368.98v1h2.618v3.25h-2.618v9.493h-3.347V8.864c0-1.962.418-3.372 1.258-4.239q1.255-1.296 3.476-1.297h1.23ZM61.21 17.254l-1.62-2.125 3.324-2.57a1.6 1.6 0 0 0-.695-.434 3 3 0 0 0-.953-.145q-.632.001-1.153.266-.52.26-.902.707-.38.445-.59 1.047-.206.603-.207 1.313 0 .655.246 1.257.252.605.68 1.063.433.46 1.023.734.586.277 1.266.278c.84 0 1.57-.243 2.2-.723q.94-.72 1.151-2.008l3.375.367a7.6 7.6 0 0 1-.878 2.387q-.614 1.053-1.504 1.797-.891.75-2.028 1.14A7.5 7.5 0 0 1 61.5 22a6.6 6.6 0 0 1-2.605-.512 6.1 6.1 0 0 1-2.04-1.402 6.3 6.3 0 0 1-1.32-2.11q-.473-1.223-.472-2.663-.001-1.44.472-2.676a6.2 6.2 0 0 1 1.332-2.125 6.2 6.2 0 0 1 2.043-1.387q1.178-.499 2.59-.5 2.199 0 3.781.973c1.055.644 1.852 1.582 2.395 2.804ZM76.805 12.348h-.758q-1.413 0-2.121.855c-.469.567-.703 1.29-.703 2.16v6.32h-3.559V8.942h3.164v2.41h.05c.317-.855.75-1.5 1.31-1.925q.838-.645 1.964-.645h.653ZM89.992 3.328v12.063c0 .89-.152 1.742-.457 2.543a6.6 6.6 0 0 1-1.285 2.113 6 6 0 0 1-1.988 1.43q-1.161.522-2.551.523a5.9 5.9 0 0 1-2.496-.523 6.1 6.1 0 0 1-1.965-1.43 6.8 6.8 0 0 1-1.293-2.125 7.3 7.3 0 0 1-.473-2.637q0-1.335.461-2.555a6.5 6.5 0 0 1 1.282-2.125 6.3 6.3 0 0 1 1.921-1.44 5.4 5.4 0 0 1 2.407-.54q.527 0 1.007.117.487.122 1.008.25v3.54a5 5 0 0 0-.851-.286 4 4 0 0 0-.953-.105q-1.285 0-2.106.879-.825.876-.824 2.293 0 1.417.809 2.296a2.65 2.65 0 0 0 2.015.875q1.359-.001 2.172-.875.811-.881.813-2.218V3.328Zm0 0"></path></svg>
