<svg xmlns="http://www.w3.org/2000/svg" fill="none" stroke-linecap="round"
     stroke-linejoin="round" stroke-width="2" viewBox="0 0 119 84" class="w-9 h-9">
    <path stroke="#1a1a1a"
          d="m79.21 42.88-4.82 2.78v-6.68q.015 1.125 1.44 1.95zM116.03 38.07v20c0 .19-.04.38-.1.58-.3.95-1.24 1.62-2.81 2.01l-14.13 3.48V47.58c0-.15-.02-.29-.07-.43-.15-.52-.6-.99-1.34-1.42l-1.52-.87 17.06-4.2c1.57-.39 2.51-1.06 2.81-2.01.06-.2.1-.39.1-.58M62.36 40.91l-9.12-5.27-4.56-2.63-9.53-5.51-6.65-3.84-3.91-2.26c-1.86-1.07-4.11-1.61-6.75-1.61q-3.96-.015-6.72 1.59L5.05 27.19c-1.85 1.07-2.77 2.36-2.76 3.89.01 1.52.94 2.82 2.8 3.89l10.59 6.11 23.19 13.39c.95.56 2.08.83 3.37.83 1.29.01 2.41-.27 3.36-.82l2.82-1.63 6.71-3.87 7.25-4.19c.96-.54 1.43-1.19 1.43-1.94-.01-.74-.49-1.39-1.45-1.94m-37.92-8.33c-.73.42-1.57.62-2.53.62s-1.79-.21-2.52-.63c-.74-.43-1.1-.91-1.11-1.46 0-.55.36-1.04 1.09-1.46q1.095-.63 2.52-.63c.95 0 1.8.22 2.53.64s1.1.91 1.1 1.46c.01.55-.36 1.04-1.08 1.46"/>
    <path stroke="#1a1a1a"
          d="M25.52 31.12c.01.55-.36 1.04-1.08 1.46-.73.42-1.57.62-2.53.62s-1.79-.21-2.52-.63c-.74-.43-1.1-.91-1.11-1.46 0-.55.36-1.04 1.09-1.46q1.095-.63 2.52-.63c.95 0 1.8.22 2.53.64s1.1.91 1.1 1.46M85.82 19.56 58.8 3.96c-1.86-1.07-4.11-1.61-6.75-1.61q-3.96-.015-6.72 1.59L35.26 9.75c-1.85 1.07-2.77 2.36-2.76 3.88.01 1.53.94 2.83 2.8 3.9l10.59 6.11 16.43 9.49c.96.55 2.08.83 3.37.83s2.41-.27 3.37-.82l2.82-1.63 13.96-8.06c.95-.55 1.42-1.19 1.42-1.94s-.48-1.39-1.44-1.95m-31.17-4.43q-1.095.63-2.52.63c-.95 0-1.8-.21-2.53-.64-.74-.42-1.1-.91-1.11-1.46 0-.55.36-1.03 1.09-1.45q1.095-.63 2.52-.63c.95 0 1.8.21 2.53.64.73.42 1.1.91 1.1 1.46.01.55-.36 1.03-1.08 1.45"/>
    <path stroke="#1a1a1a"
          d="M55.73 13.68c.01.55-.36 1.03-1.08 1.45q-1.095.63-2.52.63c-.95 0-1.8-.21-2.53-.64-.74-.42-1.1-.91-1.11-1.46 0-.55.36-1.03 1.09-1.45q1.095-.63 2.52-.63c.95 0 1.8.21 2.53.64.73.42 1.1.91 1.1 1.46M116.03 38.07c0 .19-.04.38-.1.58-.3.95-1.24 1.62-2.81 2.01l-17.06 4.2 1.52.87c.74.43 1.19.9 1.34 1.42.05.14.07.28.07.43 0 .22-.05.45-.14.68-.38.97-1.39 1.64-3.02 1.99l-15.3 4.06-6.14 1.63-10.58 2.82-3.55.94-6.96 1.85c-.62.16-1.18.17-1.68.04-.51-.13-.88-.32-1.1-.58-.23-.26-.35-.55-.38-.85-.03-.31.17-.6.62-.85l4.42-2.55 6.71-3.88 1.92-1.11 10.58-6.11 4.82-2.78-3.38-1.95q-1.425-.825-1.44-1.95c0-.74.47-1.39 1.42-1.94l2.82-1.63 8.63-4.98 5.34-3.08c.95-.55 2.07-.82 3.36-.82s2.41.28 3.37.83l15.28 8.83c.94.54 1.42 1.17 1.42 1.88M116.03 58.21v-.14M116.03 38.07v-.21M98.99 67.73v-.15M98.99 47.58v-.29"/>
    <path stroke="#1a1a1a"
          d="M98.99 47.58v20c0 .22-.05.45-.14.68-.38.97-1.39 1.64-3.02 1.99L53.3 81.55c-.62.16-1.18.17-1.68.04-.51-.13-.88-.32-1.1-.58-.23-.26-.35-.55-.38-.85v-20c.03.3.15.59.38.85.22.26.59.45 1.1.58.5.13 1.06.12 1.68-.04l6.96-1.85 3.55-.94 10.58-2.82 6.14-1.63 15.3-4.06c1.63-.35 2.64-1.02 3.02-1.99.09-.23.14-.46.14-.68"/>
    <path stroke="#1a1a1a"
          d="M63.81 42.85v8.92l-1.92 1.11-6.71 3.88-4.42 2.55c-.45.25-.65.54-.62.85v11.7l-4.54 2.62c-.95.55-2.07.83-3.36.82-1.29 0-2.42-.27-3.37-.83L5.09 54.97c-1.86-1.07-2.79-2.37-2.8-3.89v-20c.01 1.52.94 2.82 2.8 3.89l10.59 6.11 23.19 13.39c.95.56 2.08.83 3.37.83 1.29.01 2.41-.27 3.36-.82l2.82-1.63 6.71-3.87 7.25-4.19c.96-.54 1.43-1.19 1.43-1.94"/>
    <path stroke="#1a1a1a"
          d="M87.26 21.51v8.92l-8.63 4.98-2.82 1.63c-.95.55-1.42 1.2-1.42 1.94v6.68l-10.58 6.11v-8.92c-.01-.74-.49-1.39-1.45-1.94l-9.12-5.27-4.56-2.63-9.53-5.51-6.65-3.84V13.63c.01 1.53.94 2.83 2.8 3.9l10.59 6.11 16.43 9.49c.96.55 2.08.83 3.37.83s2.41-.27 3.37-.82l2.82-1.63 13.96-8.06c.95-.55 1.42-1.19 1.42-1.94"/>
</svg>
