<svg viewBox="0 0 1024 1024" version="1.1" xmlns="http://www.w3.org/2000/svg">
    <path
        d="M512 981.312A469.632 469.632 0 0 1 42.688 512 469.632 469.632 0 0 1 512 42.688 469.632 469.632 0 0 1 981.312 512 469.632 469.632 0 0 1 512 981.312zM512 136.832a375.168 375.168 0 1 0 0 750.272A375.168 375.168 0 0 0 512 136.832z"
    />
    <path
        d="M512 706.624A195.648 195.648 0 0 1 317.376 512 195.648 195.648 0 0 1 512 317.376 195.648 195.648 0 0 1 706.624 512 195.584 195.584 0 0 1 512 706.624z m0-295.04A101.12 101.12 0 0 0 411.52 512c0 54.912 45.568 100.48 100.48 100.48A101.12 101.12 0 0 0 612.48 512 101.12 101.12 0 0 0 512 411.52z"/>
    <path
        d="M882.432 409.984H512a46.272 46.272 0 0 1-47.104-47.104c0-26.688 20.416-47.104 47.104-47.104h370.432c26.688 0 47.104 20.416 47.104 47.104a47.232 47.232 0 0 1-47.104 47.104zM452.352 960.896a44.288 44.288 0 0 1-23.552-6.272 48 48 0 0 1-17.28-64.32l180.48-313.92a48 48 0 0 1 64.384-17.28 48 48 0 0 1 17.28 64.32l-180.48 313.92c-7.872 15.744-23.552 23.552-40.832 23.552zM383.296 634.432a47.36 47.36 0 0 1-40.832-23.552L157.248 290.688a48 48 0 0 1 17.28-64.384 48 48 0 0 1 64.32 17.28L424.064 563.84a48 48 0 0 1-17.28 64.384c-7.808 3.136-15.68 6.272-23.488 6.272z"/>
</svg>
