<svg viewBox="0 0 25 26" fill="none" xmlns="http://www.w3.org/2000/svg">
    <path
        d="M12.0146 23.5823C17.8718 23.5823 22.6201 18.8125 22.6201 12.9286C22.6201 10.2073 21.6044 7.72431 19.933 5.8413L20.674 4.56222C22.7518 6.73179 24.0292 9.68035 24.0292 12.9286C24.0292 19.5943 18.6501 24.9978 12.0146 24.9978C9.92504 24.9978 7.96008 24.462 6.24845 23.5196L7.77847 22.6985C9.07596 23.267 10.5086 23.5823 12.0146 23.5823Z"
        fill="#000000"/>
    <path
        d="M3.90559 19.7953C2.34792 17.9409 1.40912 15.5449 1.40912 12.9286C1.40912 7.04476 6.15735 2.27494 12.0146 2.27494C13.6662 2.27494 15.2297 2.65422 16.6234 3.33079L18.1467 2.5476C16.3516 1.47526 14.2547 0.859421 12.0146 0.859421C5.37912 0.859421 0 6.26299 0 12.9286C0 16.0855 1.20657 18.9594 3.18173 21.1101L3.90559 19.7953Z"
        fill="#000000"/>
    <path fill-rule="evenodd" clip-rule="evenodd"
          d="M20.0907 0.762411C19.817 0.904683 19.1113 1.26997 18.5174 1.5699L17.4416 2.12361L13.1612 4.26537C13.1612 4.26537 13.0224 4.40764 11.9658 4.94212C9.32046 6.28409 9.0621 6.42636 8.89628 6.61093C8.76132 6.76474 8.42197 7.36843 7.24584 9.5448C7.02604 9.95624 6.6867 10.5792 6.49389 10.9291C6.09285 11.6558 6.05043 11.8211 6.18925 12.1326C6.30494 12.3902 6.52474 12.5248 6.82938 12.5248C7.0299 12.5248 7.1263 12.4941 7.48878 12.3287C8.54152 11.8442 9.75235 11.3097 9.76778 11.3251C9.77549 11.3328 9.68294 11.5212 9.55954 11.7404C9.43229 11.9596 9.11223 12.5479 8.85001 13.0439C7.8127 14.9857 7.41166 15.7317 7.18029 16.1585L7.13617 16.24C7.00037 16.491 6.79328 16.8737 6.64814 17.139C6.39363 17.6158 5.24449 19.7115 4.28816 21.4456C4.10306 21.784 3.88326 22.1762 3.80228 22.3185C3.7213 22.4569 3.47836 22.8914 3.26242 23.2798C2.83438 24.0527 2.77268 24.2565 2.89608 24.491C2.97706 24.6525 3.18915 24.7756 3.38196 24.7794C3.5632 24.7794 3.62306 24.7422 3.66035 24.705C3.69765 24.6678 4.29438 23.7381 4.29438 23.7381L12.3823 19.6076L13.5815 19.0232C14.9235 18.3695 15.0854 18.2541 15.3515 17.7889C15.8605 16.8814 17.0829 14.6704 17.1871 14.4628C17.2565 14.3282 17.3991 14.0706 17.5071 13.8899C17.6845 13.6015 17.7076 13.5361 17.7192 13.3131C17.7269 13.1093 17.7153 13.0362 17.6421 12.9093C17.4878 12.644 17.1331 12.4748 16.8361 12.521C16.759 12.5325 16.5662 12.6017 16.412 12.6748C15.9955 12.867 14.7307 13.4246 14.5147 13.5092C14.3913 13.5592 14.3373 13.5669 14.3566 13.5361C14.364 13.5232 14.3804 13.4969 14.4004 13.4646C14.4222 13.4297 14.4483 13.3876 14.4723 13.3477C14.5186 13.2708 14.8271 12.7094 15.1548 12.098C15.4826 11.4866 16.0456 10.4484 16.4081 9.79474C17.0405 8.64119 17.2642 8.23744 18.6138 5.8342C18.7557 5.57993 18.9463 5.23896 19.151 4.87264C19.4417 4.35262 19.7609 3.78152 20.0098 3.33484C20.2341 2.93224 20.4616 2.52533 20.6416 2.2034C20.8021 1.91653 20.9248 1.69713 20.9738 1.60835C21.2129 1.19307 21.2437 1.0085 21.1126 0.820089C21.0625 0.74703 20.97 0.658591 20.9083 0.620139C20.6615 0.481712 20.6152 0.489403 20.0907 0.762411Z"
          fill="var(--background)"/>
    <path fill-rule="evenodd" clip-rule="evenodd"
          d="M18.2777 1.09513C18.8687 0.796621 19.5722 0.432458 19.8455 0.29045C19.9749 0.223081 20.0888 0.164667 20.1864 0.120674C20.2817 0.0776916 20.3926 0.0337977 20.5127 0.0129478C20.8184 -0.0401252 21.0367 0.0823716 21.1681 0.156061L21.1792 0.162253L21.1896 0.168746C21.3174 0.248432 21.4614 0.388942 21.55 0.517471C21.6893 0.718148 21.7529 0.951668 21.706 1.22052C21.6678 1.43975 21.5589 1.65779 21.4371 1.86957C21.3862 1.96171 21.265 2.17841 21.1088 2.45767L21.1059 2.46298C20.9258 2.78496 20.6985 3.19151 20.4744 3.59369C20.2253 4.04077 19.9059 4.61222 19.6153 5.13214L19.6132 5.13592C19.4092 5.50088 19.2196 5.84015 19.0783 6.09331L19.0776 6.09464C17.7283 8.49723 17.5056 8.89918 16.8745 10.0504L16.8733 10.0527C16.5124 10.7034 15.9507 11.7392 15.6236 12.3493C15.6007 12.3921 15.5778 12.4347 15.555 12.477C15.8118 12.363 16.0462 12.2578 16.1868 12.1929C16.2801 12.1488 16.3816 12.1073 16.4722 12.0746C16.5503 12.0464 16.6606 12.0096 16.756 11.9952C17.2713 11.9158 17.839 12.1898 18.1019 12.642L18.1027 12.6434C18.1576 12.7385 18.2082 12.8466 18.2339 12.9851C18.2567 13.1075 18.2547 13.2281 18.2507 13.3332L18.2504 13.3406C18.2439 13.4669 18.2321 13.6033 18.1748 13.7599C18.1247 13.8966 18.047 14.0273 17.962 14.1655C17.8601 14.3362 17.725 14.5804 17.6608 14.7045C17.5396 14.9442 16.3182 17.1527 15.8154 18.0491L15.8132 18.0529C15.6549 18.3298 15.4998 18.5441 15.1746 18.7714C14.8916 18.9691 14.4733 19.1804 13.8146 19.5013C13.8145 19.5013 13.8146 19.5013 13.8146 19.5013L12.6197 20.0836L4.66409 24.1465L4.64769 24.1719C4.59098 24.26 4.51489 24.3779 4.43753 24.4971C4.36036 24.616 4.2812 24.7374 4.21861 24.8319C4.1875 24.8789 4.15924 24.9211 4.13687 24.9537C4.12589 24.9697 4.11459 24.9859 4.10421 25.0002C4.09914 25.0072 4.09238 25.0164 4.08485 25.026L4.0844 25.0266C4.08014 25.0321 4.06146 25.0561 4.03592 25.0816C3.96705 25.1503 3.8734 25.2178 3.74187 25.2612C3.62637 25.2993 3.50432 25.3113 3.38197 25.3113H3.37667L3.37137 25.3112C3.17121 25.3072 2.98159 25.2436 2.82701 25.1525C2.67552 25.0632 2.52021 24.925 2.42316 24.7344C2.36824 24.629 2.32225 24.5031 2.31074 24.3518C2.29944 24.2032 2.32401 24.0634 2.36339 23.9333C2.43606 23.693 2.58808 23.3996 2.79715 23.0221L2.79759 23.0213C3.0107 22.638 3.25538 22.2003 3.34156 22.0527C3.42223 21.9109 3.63899 21.5241 3.82155 21.1904L3.82242 21.1888C4.7795 19.4533 5.92655 17.3614 6.17894 16.8886L6.1815 16.8838C6.32594 16.6197 6.53241 16.2382 6.66841 15.9869L6.71253 15.9054C6.94299 15.4802 7.3434 14.7355 8.38035 12.7943C8.4451 12.6718 8.5136 12.5433 8.58206 12.4157C8.29857 12.5432 7.99893 12.6794 7.71115 12.8119L7.70952 12.8126C7.53244 12.8934 7.38581 12.9578 7.25126 12.9982C7.09496 13.0451 6.96691 13.0567 6.82939 13.0567C6.59832 13.0567 6.36681 13.0052 6.16063 12.8789C5.95218 12.7512 5.80084 12.566 5.70407 12.3505L5.70346 12.3491C5.65836 12.2479 5.61319 12.1265 5.59456 11.9846C5.57522 11.8374 5.58794 11.6964 5.62357 11.5558C5.68683 11.3064 5.83493 11.0224 6.02819 10.6722M9.00148 11.6464C9.07905 11.6122 9.15264 11.5799 9.22132 11.55C9.22328 11.5491 9.22523 11.5483 9.22718 11.5474C9.24359 11.5403 9.25972 11.5332 9.27556 11.5264C9.57003 11.3984 9.76171 11.3191 9.76779 11.3251C9.7755 11.3328 9.68295 11.5212 9.55956 11.7404C9.54953 11.7577 9.53831 11.7772 9.52602 11.7988C9.48684 11.8677 9.43674 11.9576 9.37971 12.0612C9.22746 12.3376 9.02575 12.7115 8.85002 13.0439C7.81271 14.9857 7.41167 15.7317 7.1803 16.1585L7.13618 16.24C7.00038 16.491 6.79329 16.8737 6.64815 17.139C6.39364 17.6158 5.2445 19.7115 4.28817 21.4456C4.10308 21.784 3.88327 22.1762 3.80229 22.3185C3.72131 22.4569 3.47838 22.8914 3.26243 23.2798C2.8344 24.0527 2.7727 24.2565 2.89609 24.491C2.97707 24.6525 3.18916 24.7756 3.38197 24.7794C3.56321 24.7794 3.62307 24.7422 3.66037 24.705C3.69766 24.6678 4.2944 23.738 4.2944 23.738L12.3823 19.6076L13.5815 19.0232C14.9235 18.3695 15.0854 18.2541 15.3515 17.7889C15.8605 16.8814 17.0829 14.6704 17.1871 14.4628C17.2565 14.3282 17.3992 14.0706 17.5071 13.8898C17.6845 13.6015 17.7076 13.5361 17.7192 13.3131C17.7269 13.1093 17.7154 13.0362 17.6421 12.9093C17.4878 12.644 17.1331 12.4748 16.8362 12.521C16.759 12.5325 16.5662 12.6017 16.412 12.6748C16.1592 12.7915 15.594 13.0427 15.1404 13.2411C15.0371 13.2863 14.9395 13.3287 14.8528 13.3662C14.7748 13.3999 14.7055 13.4297 14.6486 13.4538C14.589 13.479 14.5429 13.4981 14.5147 13.5092C14.5057 13.5128 14.4971 13.5163 14.4888 13.5195C14.4425 13.5374 14.4078 13.5483 14.3851 13.5524C14.3845 13.5525 14.3838 13.5526 14.3832 13.5527C14.3559 13.5574 14.3469 13.5517 14.3566 13.5361C14.364 13.5232 14.3803 13.4971 14.4003 13.4649C14.4179 13.4365 14.4386 13.4032 14.4585 13.3704C14.4589 13.3698 14.4593 13.3692 14.4597 13.3686C14.4639 13.3616 14.4682 13.3546 14.4723 13.3477C14.4893 13.3195 14.5416 13.226 14.6172 13.0887C14.6588 13.0133 14.7074 12.9246 14.761 12.8263C14.8757 12.6161 15.0135 12.3617 15.1549 12.098C15.4826 11.4866 16.0456 10.4484 16.4081 9.79473C17.0405 8.64118 17.2642 8.23743 18.6138 5.8342C18.7556 5.58 18.9462 5.23915 19.1509 4.87295L19.1519 4.87099C19.4424 4.35141 19.7612 3.78104 20.0098 3.33483C20.2336 2.93307 20.4607 2.52702 20.6405 2.2054L20.6417 2.20339C20.8021 1.91653 20.9248 1.69712 20.9738 1.60834C21.2129 1.19306 21.2438 1.0085 21.1126 0.820082C21.0625 0.747024 20.97 0.658584 20.9083 0.620132C20.6615 0.481706 20.6152 0.489397 20.0908 0.762404C19.817 0.904676 19.1113 1.26997 18.5174 1.56989L17.4416 2.1236L13.1612 4.26536C13.1612 4.26536 13.0224 4.40763 11.9658 4.94211C9.32048 6.28408 9.06211 6.42635 8.8963 6.61092C8.76133 6.76473 8.42199 7.36842 7.24585 9.5448C7.02605 9.95623 6.68671 10.5791 6.4939 10.9291C6.09286 11.6558 6.05044 11.8211 6.18926 12.1326C6.30495 12.3902 6.52475 12.5248 6.82939 12.5248C7.02991 12.5248 7.12631 12.494 7.48879 12.3287C8.00883 12.0894 8.56744 11.8378 9.00148 11.6464ZM6.02819 10.6722C6.22023 10.3236 6.55834 9.70297 6.77673 9.29417L6.77793 9.29193C7.36569 8.20433 7.74666 7.5054 7.99794 7.05865C8.23555 6.63622 8.38386 6.3885 8.49652 6.26012L8.50062 6.25544C8.65153 6.08747 8.83355 5.96837 9.24699 5.74337C9.6714 5.5124 10.4057 5.13717 11.7252 4.46779L11.7257 4.46751C12.2469 4.20389 12.5317 4.04198 12.6815 3.95003C12.7481 3.90913 12.7851 3.88386 12.8026 3.87132L12.8431 3.8298L17.2009 1.6493L18.2777 1.09513"
          fill="#000000"/>
</svg>
